<svg width="97" height="97" viewBox="0 0 97 97" fill="none" xmlns="http://www.w3.org/2000/svg">
  <path d="M97 97H0V0H97V97ZM3.22326 93.7767H93.7767V3.22326H3.22326V93.7767Z" fill="#333333" />
  <path
    d="M23.8049 33.3071H19.3394V30.386C23.6035 30.386 27.1961 30.386 31.4937 30.386V33.3071H27.0282V45.0586H23.7713V33.3071H23.8049Z"
    fill="#333333" />
  <path
    d="M55.5675 44.6557H51.9413L48.1809 39.8544H45.8306V44.6557H42.5737V30.0167C44.9576 30.0167 47.1736 30.0167 49.5239 30.0167C53.0493 30.0167 54.9296 32.367 54.9296 34.9523C54.896 36.8662 54.3588 38.5449 51.5384 39.5522L55.5675 44.4207V44.6557ZM45.8306 32.8371V37.1012H49.5575C51.0684 37.1012 51.7063 35.9596 51.7063 35.0531C51.6727 34.0458 51.0348 32.8371 49.5239 32.8371H45.8306V32.8371Z"
    fill="#333333" />
  <path d="M68.4272 44.4877V29.8152H71.6841V44.4542H68.4272V44.4877Z" fill="#333333" />
  <path
    d="M29.0429 61.8463L28.8415 57.2464V52.3108H32.1319V66.9498H29.3115L22.0256 57.5822L22.1599 62.3835V66.9498H18.8359V52.3108H21.6563L29.0429 61.8463Z"
    fill="#333333" />
  <path
    d="M55.2991 64.6333C53.7882 66.1106 51.8408 66.7821 49.6584 66.7821C44.0849 66.7821 41.8353 63.1895 41.8353 59.194C41.8017 55.4 44.2863 51.438 49.6584 51.438C51.673 51.438 53.5196 52.2103 55.0305 53.6876L52.9824 55.7022C52.1094 54.8292 50.8336 54.4934 49.6584 54.4934C46.3344 54.4934 45.025 57.0788 45.0586 59.194C45.0921 61.3429 46.2337 63.7603 49.6584 63.7603C50.8336 63.7603 52.378 63.2231 53.251 62.3501L55.2991 64.6333Z"
    fill="#333333" />
  <path
    d="M73.5642 64.6667H66.0432L64.9688 67.1849H61.4434L68.0242 52.5459H71.5832L78.164 67.1849H74.6386L73.5642 64.6667ZM69.8037 55.8363L67.2855 61.7792H72.3219L69.8037 55.8363Z"
    fill="#333333" />
</svg>
