<svg width="30" height="34" viewBox="0 0 30 34" fill="none" xmlns="http://www.w3.org/2000/svg">
<path d="M19.7655 19.969C19.8658 19.969 19.9648 19.9476 20.0561 19.9064C22.3085 18.8933 24.9771 16.7033 25.0841 13.8655C25.0877 13.7733 25.073 13.6813 25.0408 13.5948C25.0086 13.5082 24.9596 13.4289 24.8965 13.3612C24.8335 13.2935 24.7577 13.2389 24.6734 13.2004C24.5891 13.1619 24.498 13.1403 24.4053 13.1368C24.3126 13.1333 24.2202 13.1481 24.1332 13.1802C24.0462 13.2122 23.9665 13.2611 23.8985 13.3238C23.8305 13.3866 23.7757 13.4621 23.737 13.546C23.6984 13.6298 23.6768 13.7205 23.6734 13.8127C23.5958 15.8687 21.5085 17.7121 19.4743 18.6269C19.3272 18.6931 19.2074 18.8074 19.1348 18.9508C19.0622 19.0942 19.0412 19.258 19.0752 19.4149C19.1093 19.5718 19.1964 19.7124 19.322 19.8132C19.4476 19.914 19.6041 19.969 19.7655 19.969H19.7655Z" fill="black"/>
<path d="M26.1176 25.7752C25.9675 25.7759 25.8175 25.7852 25.6684 25.8032L24.1084 20.7687C25.6112 19.6232 26.8287 18.149 27.6668 16.4603C28.5048 14.7716 28.9409 12.9137 28.9412 11.0305C28.9412 10.8443 28.8668 10.6657 28.7344 10.534C28.602 10.4024 28.4225 10.3284 28.2353 10.3284H4.94118C4.75397 10.3284 4.57443 10.4024 4.44205 10.534C4.30968 10.6657 4.2353 10.8443 4.23529 11.0305C4.2362 11.7366 4.29822 12.4413 4.42068 13.1369H0.705882C0.518671 13.1369 0.339127 13.2109 0.206748 13.3425C0.0743697 13.4742 0 13.6528 0 13.839C0 14.0252 0.0743697 14.2038 0.206748 14.3355C0.339127 14.4672 0.518671 14.5411 0.705882 14.5411H4.75178C5.52154 17.0923 7.10117 19.3269 9.25428 20.9105L6.3731 32.6297C6.35087 32.7193 6.34664 32.8124 6.36063 32.9037C6.37463 32.995 6.40658 33.0826 6.45467 33.1616C6.50276 33.2405 6.56603 33.3093 6.64087 33.3639C6.7157 33.4186 6.80064 33.458 6.8908 33.4799C6.98097 33.5018 7.0746 33.5058 7.16633 33.4917C7.25806 33.4776 7.3461 33.4457 7.4254 33.3977C7.5047 33.3497 7.57371 33.2866 7.62847 33.2121C7.68323 33.1375 7.72267 33.053 7.74454 32.9632L8.38972 30.339H22.3027C22.4371 31.0602 22.7752 31.7284 23.2776 32.2654C23.7799 32.8024 24.4256 33.1859 25.1391 33.3711C25.8527 33.5562 26.6044 33.5354 27.3065 33.3109C28.0085 33.0865 28.6317 32.6678 29.1032 32.1038C29.5746 31.5398 29.8748 30.8538 29.9685 30.1263C30.0622 29.3988 29.9457 28.6597 29.6324 27.9957C29.3191 27.3317 28.8222 26.7702 28.1997 26.3769C27.5773 25.9837 26.8551 25.7749 26.1176 25.7752ZM5.66965 11.7326H27.5068C27.3274 14.4916 26.099 17.0793 24.0711 18.9702C22.0432 20.861 19.3678 21.9133 16.5882 21.9133C13.8087 21.9133 11.1333 20.861 9.10537 18.9702C7.07747 17.0793 5.84908 14.4916 5.66965 11.7326ZM10.5087 21.7201C12.3994 22.7882 14.5407 23.3392 16.715 23.3171C18.8892 23.295 21.0188 22.7007 22.8872 21.5945L24.3196 26.2175C23.7988 26.4893 23.3468 26.875 22.9974 27.3457C22.6481 27.8163 22.4106 28.3596 22.3027 28.9347H8.73494L10.5087 21.7201ZM26.1176 32.0943C25.629 32.0943 25.1513 31.9502 24.7451 31.6802C24.3388 31.4101 24.0221 31.0263 23.8351 30.5773C23.6481 30.1283 23.5992 29.6341 23.6945 29.1574C23.7899 28.6808 24.0252 28.2429 24.3707 27.8992C24.7162 27.5555 25.1564 27.3215 25.6357 27.2266C26.1149 27.1318 26.6117 27.1805 27.0631 27.3665C27.5145 27.5525 27.9004 27.8675 28.1719 28.2716C28.4433 28.6757 28.5882 29.1508 28.5882 29.6369C28.5875 30.2884 28.327 30.913 27.8638 31.3737C27.4006 31.8344 26.7727 32.0936 26.1176 32.0943Z" fill="black"/>
<path d="M22.4056 4.7825C22.759 5.83689 22.8883 6.57947 22.4421 7.02345C22.3765 7.08863 22.3245 7.16603 22.289 7.25121C22.2535 7.3364 22.2352 7.42771 22.2352 7.51992C22.2352 7.61213 22.2534 7.70345 22.2889 7.78864C22.3244 7.87384 22.3764 7.95125 22.4419 8.01646C22.5075 8.08166 22.5853 8.13338 22.671 8.16866C22.7566 8.20395 22.8484 8.2221 22.9411 8.22208C23.0338 8.22207 23.1256 8.20389 23.2113 8.16858C23.2969 8.13327 23.3747 8.08153 23.4403 8.0163C24.5932 6.86952 24.0414 5.22305 23.7449 4.3387L23.5673 3.80868C23.2262 2.79628 23.033 2.10238 23.4403 1.69715C23.572 1.56537 23.6459 1.38698 23.6456 1.20111C23.6454 1.01524 23.5711 0.837057 23.4389 0.705627C23.3068 0.574196 23.1276 0.500249 22.9408 0.500001C22.7539 0.499752 22.5746 0.573221 22.4421 0.704299C21.386 1.75458 21.8732 3.1998 22.2287 4.25505L22.4056 4.7825Z" fill="black"/>
<path d="M16.0528 4.7825C16.4062 5.83689 16.5355 6.57947 16.0893 7.02345C16.0237 7.08863 15.9717 7.16603 15.9362 7.25121C15.9007 7.3364 15.8824 7.42771 15.8824 7.51992C15.8824 7.61213 15.9007 7.70345 15.9361 7.78864C15.9716 7.87384 16.0236 7.95125 16.0892 8.01646C16.1547 8.08166 16.2325 8.13338 16.3182 8.16866C16.4038 8.20395 16.4956 8.2221 16.5883 8.22208C16.6811 8.22207 16.7728 8.20389 16.8585 8.16858C16.9441 8.13327 17.0219 8.08153 17.0875 8.0163C18.2404 6.86952 17.6886 5.22305 17.3922 4.3387L17.2145 3.80868C16.8734 2.79628 16.6802 2.10238 17.0875 1.69715C17.2193 1.56537 17.2931 1.38698 17.2929 1.20111C17.2926 1.01524 17.2183 0.837057 17.0861 0.705627C16.954 0.574196 16.7749 0.500249 16.588 0.500001C16.4011 0.499752 16.2218 0.573221 16.0893 0.704299C15.0332 1.75458 15.5204 3.1998 15.876 4.25505L16.0528 4.7825Z" fill="black"/>
<path d="M9.60927 4.91192C9.95032 5.92431 10.1435 6.61821 9.73628 7.02344C9.67071 7.08863 9.61869 7.16602 9.58319 7.25121C9.54769 7.33639 9.52941 7.4277 9.5294 7.51992C9.52938 7.61213 9.54763 7.70344 9.5831 7.78864C9.61857 7.87384 9.67057 7.95125 9.73612 8.01645C9.80168 8.08166 9.8795 8.13338 9.96516 8.16866C10.0508 8.20394 10.1426 8.22209 10.2353 8.22208C10.328 8.22207 10.4198 8.20388 10.5055 8.16858C10.5911 8.13327 10.6689 8.08152 10.7344 8.0163C11.7905 6.96602 11.3033 5.5208 10.9478 4.46555L10.771 3.9381C10.4175 2.8837 10.2883 2.14112 10.7344 1.69715C10.8662 1.56537 10.9401 1.38698 10.9398 1.20111C10.9396 1.01524 10.8652 0.837057 10.7331 0.705627C10.601 0.574196 10.4218 0.500249 10.235 0.500001C10.0481 0.499752 9.86876 0.573221 9.73627 0.704299C8.58336 1.85108 9.13517 3.49755 9.43159 4.3819L9.60927 4.91192Z" fill="black"/>
</svg>
